# xmcd
# 
# Track frame offsets:
#     150
#     18073
#     29586
#     48782
#     70334
#     87385
#     102125
#     119339
#     135876
#     154445
#     167992
#     189339
#     205994
# 
# Disc length: 2981
# 
# Revision: 0
# Processed by: cddbd v1.5.2PL0 Copyright (c) Steve Scherf et al.
# Submitted via: BonkEnc v1.0beta4
# 
DISCID=a90ba30d
DTITLE=Michael Bublé - It's Time
DYEAR=2005
DGENRE=Jazz
TTITLE0=Michael Bublé - Feeling Good
TTITLE1=Michael Bublé - A Foggy Day (In London Town)
TTITLE2=Michael Bublé - You Don't Know Me
TTITLE3=Michael Bublé - Nelly Furtado - Quando, Quando, Quando
TTITLE4=Michael Bublé - Home
TTITLE5=Michael Bublé - Can't Buy Me Love
TTITLE6=Michael Bublé - The More I See You
TTITLE7=Michael Bublé - Save The Last Dance For Me
TTITLE8=Michael Bublé - Try A Little Tenderness
TTITLE9=Michael Bublé - How Sweet It Is
TTITLE10=Michael Bublé - Chris Botti - Song For You
TTITLE11=Michael Bublé - I've Got You Under My Skin
TTITLE12=Michael Bublé - You And I
EXTD=© 2005, Reprise records.\nProduced by David Foster and Humberto Gatica.\nRecorded and Mixed by Humberto Gatica at Chartmaker Studios. YEAR: 2005
EXTT0=
EXTT1=
EXTT2=
EXTT3=Duet With Nelly Furtado.
EXTT4=
EXTT5=
EXTT6=
EXTT7=
EXTT8=
EXTT9=
EXTT10=Featuring Chris Botti.
EXTT11=
EXTT12=
PLAYORDER=
